<?xml version="1.0" encoding="utf-8"?>
<!-- Generator: Adobe Illustrator 24.3.0, SVG Export Plug-In . SVG Version: 6.00 Build 0)  -->
<svg version="1.1" id="Layer_1" xmlns="http://www.w3.org/2000/svg" xmlns:xlink="http://www.w3.org/1999/xlink" x="0px" y="0px"
	 viewBox="0 0 198.43 42.52" style="enable-background:new 0 0 198.43 42.52;" xml:space="preserve">
<style type="text/css">
	.st0{fill-rule:evenodd;clip-rule:evenodd;fill:#8B9594;}
	.st1{fill-rule:evenodd;clip-rule:evenodd;fill:#004990;}
</style>
<path class="st0" d="M4.5,35.7l1.71-0.26c0.07,0.33,0.22,0.58,0.44,0.76c0.22,0.17,0.53,0.26,0.93,0.26c0.44,0,0.77-0.08,0.99-0.24
	c0.15-0.11,0.23-0.26,0.23-0.45c0-0.13-0.04-0.24-0.12-0.32c-0.09-0.08-0.28-0.16-0.57-0.22c-1.37-0.3-2.25-0.58-2.62-0.83
	c-0.51-0.35-0.76-0.83-0.76-1.45c0-0.56,0.22-1.03,0.66-1.41c0.44-0.38,1.12-0.57,2.05-0.57c0.88,0,1.54,0.15,1.97,0.43
	c0.43,0.29,0.72,0.71,0.88,1.28l-1.61,0.3c-0.07-0.25-0.2-0.44-0.39-0.58c-0.19-0.13-0.47-0.2-0.82-0.2c-0.45,0-0.77,0.06-0.96,0.19
	c-0.13,0.09-0.19,0.2-0.19,0.35c0,0.12,0.06,0.22,0.17,0.31c0.15,0.11,0.68,0.27,1.59,0.48c0.91,0.2,1.54,0.46,1.9,0.76
	c0.36,0.3,0.53,0.73,0.53,1.27c0,0.59-0.25,1.1-0.74,1.52c-0.49,0.42-1.22,0.64-2.19,0.64c-0.88,0-1.57-0.18-2.09-0.53
	C4.99,36.8,4.65,36.31,4.5,35.7"/>
<path class="st0" d="M16.52,37.54V31.1h1.7v6.44H16.52z M16.52,30.23v-1.58h1.7v1.58H16.52z"/>
<path class="st0" d="M23.81,37.54v-1.33l2.41-2.77c0.4-0.45,0.69-0.77,0.88-0.97c-0.2,0.01-0.46,0.02-0.78,0.02l-2.28,0.01V31.1
	h5.33v1.21l-2.46,2.84l-0.87,0.94c0.47-0.03,0.77-0.04,0.88-0.04h2.64v1.5H23.81z"/>
<path class="st0" d="M36.42,34.87c0.01,0.49,0.14,0.87,0.38,1.13c0.24,0.26,0.54,0.39,0.89,0.39c0.37,0,0.68-0.14,0.92-0.41
	c0.24-0.27,0.36-0.64,0.36-1.1H36.42z M36.52,33.15l-1.7-0.28c0.22-0.62,0.56-1.1,1.04-1.42c0.47-0.33,1.06-0.49,1.77-0.49
	c1.12,0,1.95,0.36,2.49,1.1c0.42,0.59,0.64,1.33,0.64,2.22c0,1.07-0.28,1.9-0.84,2.51c-0.56,0.6-1.26,0.91-2.12,0.91
	c-0.96,0-1.71-0.32-2.27-0.95c-0.55-0.63-0.82-1.6-0.8-2.91H39c-0.01-0.51-0.15-0.9-0.41-1.18c-0.26-0.28-0.59-0.42-0.98-0.42
	c-0.27,0-0.49,0.07-0.67,0.22C36.75,32.59,36.61,32.83,36.52,33.15z"/>
<path class="st0" d="M49.35,31.1h0.95v-0.49c0-0.54,0.06-0.95,0.17-1.21c0.12-0.27,0.33-0.48,0.64-0.65
	c0.31-0.17,0.7-0.25,1.17-0.25c0.49,0,0.96,0.07,1.43,0.22l-0.23,1.19c-0.27-0.07-0.53-0.1-0.78-0.1c-0.25,0-0.42,0.06-0.53,0.17
	C52.05,30.1,52,30.32,52,30.64v0.46h1.27v1.34H52v5.1h-1.71v-5.1h-0.95V31.1z"/>
<path class="st0" d="M62.3,34.45c-0.22,0.07-0.56,0.16-1.04,0.26c-0.47,0.1-0.78,0.2-0.93,0.3c-0.22,0.16-0.33,0.36-0.33,0.6
	c0,0.24,0.09,0.44,0.27,0.62c0.18,0.17,0.4,0.26,0.68,0.26c0.31,0,0.6-0.1,0.88-0.3c0.21-0.15,0.34-0.34,0.41-0.57
	c0.05-0.15,0.07-0.42,0.07-0.83V34.45z M60.02,33.07l-1.55-0.28c0.17-0.62,0.47-1.08,0.9-1.38c0.43-0.3,1.06-0.45,1.89-0.45
	c0.76,0,1.33,0.09,1.7,0.27c0.37,0.18,0.63,0.41,0.78,0.69c0.15,0.28,0.23,0.78,0.23,1.53l-0.02,1.99c0,0.57,0.03,0.98,0.08,1.25
	c0.05,0.27,0.16,0.56,0.31,0.86h-1.69c-0.04-0.11-0.1-0.28-0.16-0.5c-0.03-0.1-0.05-0.17-0.06-0.2c-0.29,0.28-0.6,0.49-0.93,0.64
	c-0.33,0.14-0.69,0.21-1.06,0.21c-0.66,0-1.19-0.18-1.57-0.54c-0.38-0.36-0.57-0.82-0.57-1.37c0-0.36,0.09-0.69,0.26-0.97
	c0.17-0.29,0.42-0.5,0.73-0.65c0.31-0.15,0.77-0.28,1.36-0.4c0.8-0.15,1.35-0.29,1.65-0.42v-0.17c0-0.33-0.08-0.56-0.24-0.7
	c-0.16-0.14-0.47-0.21-0.92-0.21c-0.3,0-0.54,0.06-0.71,0.18C60.26,32.56,60.13,32.77,60.02,33.07z"/>
<path class="st0" d="M69.37,31.1h1.81l1.54,4.57l1.51-4.57h1.76l-2.27,6.2l-0.41,1.12c-0.15,0.37-0.29,0.66-0.43,0.86
	c-0.14,0.2-0.29,0.36-0.47,0.48c-0.18,0.12-0.39,0.22-0.65,0.29c-0.26,0.07-0.55,0.1-0.87,0.1c-0.33,0-0.65-0.04-0.96-0.1
	l-0.15-1.34c0.27,0.05,0.51,0.08,0.72,0.08c0.4,0,0.69-0.12,0.88-0.35c0.19-0.23,0.34-0.53,0.44-0.89L69.37,31.1z"/>
<path class="st0" d="M82.96,34.18c0,0.69,0.1,1.18,0.29,1.49c0.27,0.44,0.66,0.67,1.15,0.67c0.39,0,0.73-0.17,1-0.5
	c0.27-0.33,0.41-0.83,0.41-1.49c0-0.74-0.13-1.27-0.4-1.6c-0.27-0.33-0.61-0.49-1.03-0.49c-0.4,0-0.74,0.16-1.01,0.48
	C83.09,33.06,82.96,33.54,82.96,34.18 M87.51,37.54h-1.58V36.6c-0.26,0.37-0.57,0.64-0.93,0.82c-0.36,0.18-0.72,0.27-1.08,0.27
	c-0.74,0-1.38-0.3-1.9-0.89c-0.53-0.6-0.79-1.43-0.79-2.5c0-1.09,0.26-1.92,0.77-2.49c0.51-0.57,1.16-0.85,1.95-0.85
	c0.72,0,1.34,0.3,1.87,0.9v-3.2h1.7V37.54z"/>
<path class="st0" d="M97.26,34.45c-0.22,0.07-0.56,0.16-1.04,0.26c-0.47,0.1-0.78,0.2-0.93,0.3c-0.22,0.16-0.33,0.36-0.33,0.6
	c0,0.24,0.09,0.44,0.27,0.62c0.18,0.17,0.4,0.26,0.68,0.26c0.31,0,0.6-0.1,0.88-0.3c0.21-0.15,0.34-0.34,0.41-0.57
	c0.05-0.15,0.07-0.42,0.07-0.83V34.45z M94.98,33.07l-1.55-0.28c0.17-0.62,0.47-1.08,0.9-1.38c0.43-0.3,1.06-0.45,1.89-0.45
	c0.76,0,1.33,0.09,1.7,0.27c0.37,0.18,0.63,0.41,0.78,0.69c0.15,0.28,0.23,0.78,0.23,1.53l-0.02,1.99c0,0.57,0.03,0.98,0.08,1.25
	c0.05,0.27,0.16,0.56,0.31,0.86h-1.69c-0.04-0.11-0.1-0.28-0.16-0.5c-0.03-0.1-0.05-0.17-0.06-0.2c-0.29,0.28-0.6,0.49-0.93,0.64
	c-0.33,0.14-0.69,0.21-1.06,0.21c-0.66,0-1.19-0.18-1.57-0.54c-0.38-0.36-0.57-0.82-0.57-1.37c0-0.36,0.09-0.69,0.26-0.97
	c0.17-0.29,0.42-0.5,0.73-0.65c0.31-0.15,0.77-0.28,1.36-0.4c0.8-0.15,1.35-0.29,1.65-0.42v-0.17c0-0.33-0.08-0.56-0.24-0.7
	c-0.16-0.14-0.47-0.21-0.92-0.21c-0.3,0-0.54,0.06-0.71,0.18C95.22,32.56,95.08,32.77,94.98,33.07z"/>
<rect x="105.13" y="28.65" class="st0" width="1.7" height="8.89"/>
<rect x="113.1" y="31.1" class="st0" width="1.7" height="6.44"/>
<path class="st1" d="M190.37,14.8v-1.58c-0.35,0.28-1.09,0.5-2.21,0.68c-0.47,0.08-0.86,0.18-1.17,0.3
	c-0.31,0.12-0.57,0.31-0.75,0.55c-0.19,0.25-0.28,0.58-0.28,1.01c0,0.51,0.16,0.89,0.47,1.13c0.31,0.24,0.66,0.36,1.04,0.36
	c0.49,0,0.96-0.1,1.4-0.3c0.45-0.2,0.81-0.49,1.09-0.86C190.22,15.71,190.37,15.28,190.37,14.8L190.37,14.8z M193.55,10.12v6.71
	c0,0.67,0.06,1.15,0.18,1.41c0.12,0.26,0.3,0.44,0.54,0.53v0.49h-3.51c-0.15-0.47-0.25-0.96-0.3-1.47c-0.53,0.54-1.08,0.98-1.67,1.3
	c-0.59,0.33-1.37,0.49-2.34,0.49c-0.65,0-1.27-0.13-1.84-0.38c-0.57-0.26-1.04-0.66-1.39-1.2c-0.35-0.54-0.53-1.22-0.53-2.02
	c0-0.78,0.15-1.45,0.46-2.01c0.31-0.56,0.73-1,1.26-1.31c0.53-0.31,1.16-0.53,1.89-0.64l2.93-0.44c0.76-0.1,1.14-0.43,1.14-0.98
	c0-0.6-0.21-0.99-0.61-1.17c-0.41-0.18-0.92-0.27-1.53-0.27c-0.72,0-1.22,0.16-1.49,0.49c-0.28,0.33-0.45,0.74-0.51,1.23h-3.15
	c0.11-1.18,0.44-2.1,0.98-2.73c0.53-0.64,1.18-1.07,1.93-1.28c0.76-0.21,1.63-0.32,2.63-0.32c0.74,0,1.48,0.1,2.21,0.29
	c0.74,0.19,1.38,0.56,1.92,1.09C193.28,8.45,193.55,9.18,193.55,10.12z M173.58,15.33v3.91h-3.26V2.53h3.26v9.04l4.1-4.7h4
	l-4.38,4.8l4.5,7.59h-3.91l-2.96-5.31L173.58,15.33z M166.76,2.36v3.03h-3.26V2.36H166.76z M163.5,6.86h3.26v12.39h-3.26V6.86z
	 M159.94,2.53v16.72h-3.26V2.53H159.94z M145.17,2.53v5.95h0.05c0.84-1.29,2.03-1.94,3.59-1.94c0.69,0,1.35,0.13,1.97,0.4
	c0.62,0.27,1.17,0.67,1.65,1.2c0.48,0.53,0.86,1.2,1.13,2c0.27,0.8,0.41,1.73,0.41,2.78c0,1.18-0.19,2.28-0.56,3.3
	c-0.37,1.02-0.95,1.83-1.74,2.44c-0.78,0.61-1.76,0.92-2.92,0.92c-1.68,0-2.88-0.63-3.59-1.88h-0.05v1.56h-3.19V2.53H145.17z
	 M150.59,13.15c0-1.09-0.22-1.99-0.66-2.71c-0.44-0.72-1.15-1.08-2.11-1.08c-1.86,0-2.79,1.33-2.79,3.98c0,1.01,0.24,1.85,0.72,2.53
	c0.48,0.68,1.2,1.02,2.17,1.02c0.64,0,1.16-0.2,1.56-0.59c0.4-0.39,0.69-0.87,0.86-1.44C150.51,14.29,150.59,13.72,150.59,13.15z
	 M138.6,6.86v12.39h-3.12V17.5h-0.05c-0.37,0.67-0.88,1.18-1.52,1.53c-0.64,0.36-1.39,0.54-2.25,0.54c-0.83,0-1.57-0.16-2.2-0.49
	c-0.64-0.33-1.13-0.83-1.48-1.51c-0.35-0.68-0.53-1.54-0.53-2.56V6.86h3.26v7.69c0,1.52,0.71,2.28,2.12,2.28
	c0.66,0,1.24-0.22,1.75-0.66c0.51-0.44,0.76-1.16,0.76-2.16V6.86H138.6z M115.9,6.86l0,1.8h0.05c0.4-0.64,0.88-1.16,1.42-1.54
	c0.55-0.39,1.31-0.58,2.28-0.58c0.69,0,1.35,0.13,1.97,0.4c0.62,0.27,1.17,0.67,1.65,1.2c0.48,0.53,0.86,1.2,1.13,2
	c0.27,0.8,0.41,1.73,0.41,2.78c0,1.18-0.19,2.28-0.56,3.3c-0.37,1.02-0.95,1.83-1.74,2.44c-0.78,0.61-1.76,0.92-2.92,0.92
	c-1.59,0-2.75-0.64-3.49-1.91h-0.05v6.41h-3.26V6.86H115.9z M115.9,13.33c0,1.01,0.23,1.86,0.71,2.53s1.19,1.02,2.15,1.02
	c0.64,0,1.17-0.2,1.57-0.59c0.4-0.39,0.69-0.87,0.86-1.44c0.17-0.57,0.25-1.14,0.25-1.71c0-1.09-0.22-1.99-0.66-2.71
	c-0.44-0.72-1.15-1.08-2.11-1.08C116.82,9.35,115.89,10.68,115.9,13.33L115.9,13.33z M109.75,10.63l-3.18,0
	c-0.08-0.51-0.28-0.91-0.57-1.19C105.71,9.15,105.16,9,104.37,9c-1.33,0-2,0.41-2,1.21c0,0.41,0.44,0.74,1.32,0.96
	c0.88,0.22,1.82,0.45,2.82,0.68c1,0.23,1.85,0.61,2.56,1.13c0.7,0.52,1.06,1.3,1.06,2.34c0,1.1-0.3,1.97-0.89,2.61
	c-0.59,0.64-1.3,1.07-2.12,1.3c-0.82,0.23-1.63,0.35-2.43,0.35c-1.63,0-3.03-0.33-4.17-1c-1.15-0.67-1.74-1.76-1.78-3.28h3.35
	c0,1.21,0.9,1.81,2.7,1.81c0.74,0,1.28-0.14,1.59-0.4c0.32-0.27,0.48-0.56,0.48-0.87c0-0.45-0.46-0.79-1.38-1.02
	c-0.92-0.23-1.85-0.46-2.81-0.68c-0.96-0.22-1.78-0.59-2.47-1.1c-0.69-0.51-1.03-1.29-1.03-2.34c0-0.67,0.16-1.33,0.47-1.95
	c0.31-0.63,0.85-1.15,1.6-1.57c0.75-0.41,1.73-0.62,2.93-0.62C107.69,6.53,109.55,7.9,109.75,10.63L109.75,10.63z M88.63,11.82h5.05
	c-0.08-0.91-0.37-1.57-0.85-1.98c-0.49-0.41-1.04-0.62-1.66-0.62C89.67,9.21,88.83,10.08,88.63,11.82z M93.54,15.61h3.35
	c-0.39,1.38-1.1,2.38-2.11,3.01c-1.01,0.63-2.13,0.95-3.33,0.95c-0.9,0-1.72-0.12-2.47-0.35c-0.75-0.24-1.4-0.62-1.95-1.15
	c-0.55-0.53-0.99-1.24-1.29-2.12c-0.3-0.88-0.46-1.94-0.46-3.16c0-0.52,0.07-1.11,0.2-1.78c0.14-0.67,0.41-1.35,0.8-2.03
	c0.4-0.69,1.01-1.27,1.82-1.74c0.81-0.47,1.85-0.71,3.11-0.71c0.68,0,1.36,0.1,2.03,0.3c0.67,0.2,1.29,0.55,1.86,1.04
	c0.57,0.49,1.04,1.2,1.39,2.11c0.36,0.91,0.54,2.04,0.54,3.38v0.58h-8.49c0.04,0.5,0.13,0.97,0.26,1.38
	c0.13,0.41,0.41,0.79,0.83,1.13c0.42,0.34,1.03,0.51,1.82,0.51c0.47,0,0.91-0.12,1.31-0.36C93.16,16.36,93.42,16.03,93.54,15.61
	L93.54,15.61z M72.77,9.88h4.1c0.93,0,1.61-0.18,2.05-0.53C79.35,9,79.57,8.42,79.57,7.6c0-0.58-0.18-1.09-0.54-1.53
	c-0.36-0.44-1-0.66-1.91-0.66h-4.35V9.88z M69.35,19.25V2.53h8.45c1.35,0,2.41,0.27,3.2,0.81c0.79,0.54,1.33,1.17,1.62,1.9
	c0.29,0.72,0.44,1.4,0.44,2.02c0,0.93-0.23,1.77-0.68,2.49c-0.46,0.72-1.1,1.22-1.91,1.49c0.52,0.22,0.93,0.47,1.22,0.73
	c0.29,0.26,0.51,0.66,0.67,1.19c0.15,0.53,0.23,1.31,0.23,2.32c0,0.95,0.01,1.62,0.03,2c0.02,0.39,0.09,0.69,0.19,0.89
	c0.1,0.2,0.28,0.35,0.53,0.44v0.44h-3.87c-0.25-0.83-0.37-1.96-0.37-3.38c0-0.86-0.05-1.5-0.16-1.92c-0.1-0.42-0.35-0.74-0.73-0.94
	c-0.38-0.21-1-0.31-1.84-0.31h-3.61v6.54H69.35z M52.29,15.33v3.91h-3.26V2.53h3.26v9.04l4.1-4.7h4l-4.38,4.8l4.5,7.59h-3.91
	l-2.96-5.31L52.29,15.33z M45.55,10.68v8.57h-3.26v-7.52c0-0.43-0.04-0.81-0.12-1.16c-0.08-0.34-0.28-0.64-0.59-0.9
	c-0.31-0.26-0.79-0.39-1.42-0.39c-0.48,0-0.92,0.11-1.31,0.33c-0.39,0.22-0.69,0.55-0.91,0.98c-0.22,0.43-0.34,0.96-0.34,1.56v7.1
	h-3.26V6.86h3.12v1.82h0.05c0.85-1.42,2.09-2.14,3.73-2.14c0.82,0,1.56,0.16,2.21,0.48c0.65,0.32,1.17,0.79,1.54,1.41
	C45.36,9.04,45.55,9.8,45.55,10.68z M27.9,14.8v-1.58c-0.35,0.28-1.09,0.5-2.21,0.68c-0.47,0.08-0.86,0.18-1.17,0.3
	c-0.31,0.12-0.57,0.31-0.75,0.55c-0.19,0.25-0.28,0.58-0.28,1.01c0,0.51,0.16,0.89,0.47,1.13c0.31,0.24,0.66,0.36,1.04,0.36
	c0.49,0,0.96-0.1,1.4-0.3c0.45-0.2,0.81-0.49,1.09-0.86C27.76,15.71,27.9,15.28,27.9,14.8L27.9,14.8z M31.09,10.12v6.71
	c0,0.67,0.06,1.15,0.18,1.41c0.12,0.26,0.3,0.44,0.54,0.53v0.49H28.3c-0.15-0.47-0.25-0.96-0.3-1.47c-0.53,0.54-1.08,0.98-1.67,1.3
	c-0.59,0.33-1.37,0.49-2.34,0.49c-0.65,0-1.27-0.13-1.84-0.38c-0.57-0.26-1.04-0.66-1.39-1.2c-0.35-0.54-0.53-1.22-0.53-2.02
	c0-0.78,0.15-1.45,0.46-2.01c0.31-0.56,0.73-1,1.26-1.31c0.53-0.31,1.16-0.53,1.89-0.64l2.93-0.44c0.76-0.1,1.14-0.43,1.14-0.98
	c0-0.6-0.21-0.99-0.61-1.17c-0.41-0.18-0.92-0.27-1.53-0.27c-0.72,0-1.22,0.16-1.49,0.49c-0.28,0.33-0.45,0.74-0.51,1.23h-3.15
	c0.12-1.18,0.44-2.1,0.98-2.73c0.53-0.64,1.18-1.07,1.93-1.28c0.76-0.21,1.63-0.32,2.63-0.32c0.74,0,1.48,0.1,2.21,0.29
	c0.74,0.19,1.38,0.56,1.92,1.09C30.82,8.45,31.09,9.18,31.09,10.12z M7.51,5.41v3.65h4.1c0.74,0,1.33-0.15,1.78-0.46
	c0.45-0.31,0.68-0.77,0.68-1.4c0-0.65-0.21-1.11-0.64-1.38C13,5.55,12.36,5.41,11.51,5.41H7.51z M7.51,11.89v4.47h4.28
	c1.78,0,2.68-0.82,2.68-2.44c0-0.68-0.24-1.19-0.73-1.52c-0.48-0.33-1.08-0.5-1.79-0.5H7.51z M4.15,19.25V2.53h8.13
	c1.26,0,2.28,0.22,3.05,0.67c0.77,0.44,1.31,0.99,1.62,1.64c0.31,0.65,0.47,1.31,0.47,1.98c0,1.04-0.2,1.8-0.59,2.27
	c-0.39,0.47-0.88,0.86-1.46,1.15c1.72,0.64,2.58,2,2.58,4.05c0,0.66-0.13,1.29-0.38,1.88c-0.25,0.6-0.61,1.12-1.07,1.56
	c-0.38,0.36-0.75,0.64-1.12,0.85c-0.37,0.21-0.89,0.37-1.54,0.49c-0.66,0.11-1.53,0.18-2.63,0.18H4.15z"/>
</svg>
