<?xml version="1.0" encoding="UTF-8"?>
<svg width="261px" height="75px" viewBox="0 0 261 75" version="1.1" xmlns="http://www.w3.org/2000/svg" xmlns:xlink="http://www.w3.org/1999/xlink">
    <!-- Generator: Sketch 52 (66869) - http://www.bohemiancoding.com/sketch -->
    <title>pasha-technology</title>
    <desc>Created with Sketch.</desc>
    <g id="Page-1" stroke="none" stroke-width="1" fill="none" fill-rule="evenodd">
        <g id="pasha-technology">
            <polygon id="Path" fill="#73C7AF" points="0.317203676 37.6036765 15.4543015 22.4958088 30.5896324 37.6036765 27.1785662 41.0077941 9.64077574 41.0077941 9.64077574 46.9056618"></polygon>
            <polygon id="Path" fill="#73C7AF" points="37.7310662 74.9405515 22.5945221 59.8344485 37.7310662 44.7253676 41.1451103 48.1330147 41.1438971 65.6385662 47.0546691 65.6368015"></polygon>
            <polygon id="Path" fill="#73C7AF" points="75.1451471 37.5255882 60.0080515 52.6322426 44.8697426 37.5268015 48.2808088 34.1238971 65.8227574 34.1238971 65.8215441 28.2219485"></polygon>
            <polygon id="Path" fill="#73C7AF" points="52.8675 15.3742279 37.7332721 30.4768015 34.318125 27.0692647 34.3158088 9.57123529 28.4097794 9.57357353 37.7332721 0.268733824"></polygon>
            <polygon id="Path" fill="#007D57" points="11.2734926 24.3612132 11.2734926 11.2038971 32.683125 11.2038971 32.6819118 32.5666544 27.8547794 32.5678676 16.0333456 20.7675 15.4544118 20.1873529"></polygon>
            <polygon id="Path" fill="#007D57" points="11.2734926 64.0045588 24.4583824 64.0045588 20.859375 60.4113971 20.2809926 59.8330147 32.683125 47.4588971 32.683125 42.6388235 11.2734926 42.6399265"></polygon>
            <polygon id="Path" fill="#007D57" points="64.1866544 64.005 42.7775735 64.005 42.78 42.6403676 47.6071324 42.6403676 59.4314338 54.4401838 60.0104779 55.0150368 60.5858824 54.4401838 64.1866544 50.8459191"></polygon>
            <polygon id="Path" fill="#007D57" points="64.1866544 11.2038971 64.1866544 32.5689706 42.7775735 32.5689706 42.7775735 27.7476838 54.6031985 15.9502941 55.1809191 15.373125 54.6031985 14.7940809 51.0041912 11.2051103"></polygon>
            <path d="M94.1891912,11.1949632 L85.8901103,11.1949632 L85.8901103,32.4875735 L91.0503309,32.4875735 L91.0503309,26.4633088 L92.6197059,26.4633088 C98.9870956,26.4633088 102.428603,22.9397426 102.428603,18.7536397 C102.428603,13.9955515 98.9870956,11.1949632 94.1891912,11.1949632 Z M92.7999265,22.5188603 L91.0502206,22.5188603 L91.0495588,22.5188603 L91.0495588,15.2020588 L93.5246691,15.2020588 C96.2707721,15.2020588 97.1465074,16.7375735 97.1465074,18.8759559 C97.1465074,20.8640074 95.9996691,22.5188603 92.7999265,22.5188603 Z" id="Shape" fill="#007D57"></path>
            <path d="M116.461765,11.1958456 L109.85261,11.1958456 L101.645294,32.4883456 L106.775184,32.4883456 L109.099191,26.2533088 L116.311765,26.2533088 L118.333456,32.4883456 L123.645221,32.4883456 L116.461765,11.1958456 Z M112.962132,14.3574265 L115.104044,22.5495221 L110.457353,22.5495221 L112.962132,14.3574265 Z" id="Shape" fill="#007D57"></path>
            <path d="M124.127206,31.1339338 L125.60625,27.3388235 C127.477941,28.0921324 128.865441,28.6342279 131.219118,28.6342279 C133.785662,28.6342279 134.961397,27.6408088 134.961397,26.3441912 C134.961397,22.8809559 124.822059,24.2368015 124.822059,17.0094485 C124.822059,12.9129044 128.715441,10.8646213 132.4875,10.8646213 C135.868015,10.8646213 137.619485,11.5589338 139.158088,12.4908088 L137.679044,16.2554779 C136.109559,15.5641544 134.8125,15.1128309 132.638603,15.1128309 C130.979779,15.1128309 129.832721,15.9259191 129.832721,17.0996691 C129.832721,19.9305882 140.154044,19.6291544 140.154044,26.1638603 C140.154044,30.8336029 135.687132,32.8514338 131.281985,32.8514338 C127.779044,32.8502206 125.726471,32.0061397 124.127206,31.1339338 Z" id="Path" fill="#007D57"></path>
            <polygon id="Path" fill="#007D57" points="143.112132 11.1958456 148.243015 11.1958456 148.243015 19.8391544 157.295956 19.8391544 157.295956 11.1958456 162.426838 11.1958456 162.426838 32.4883456 157.295956 32.4883456 157.295956 23.7238235 148.243015 23.7238235 148.243015 32.4883456 143.112132 32.4883456"></polygon>
            <path d="M178.936765,11.1958456 L172.326838,11.1958456 L164.11875,32.4883456 L169.249632,32.4883456 L171.573529,26.2533088 L178.785662,26.2533088 L180.807353,32.4883456 L186.118015,32.4883456 L178.936765,11.1958456 Z M175.436029,14.3574265 L177.577941,22.5495221 L172.93125,22.5495221 L175.436029,14.3574265 Z" id="Shape" fill="#007D57"></path>
            <polygon id="Path" fill="#73C7AF" points="92.3738603 46.498125 85.6739338 46.498125 85.6739338 42.4923529 104.202904 42.4923529 104.202904 46.498125 97.5047426 46.498125 97.5047426 63.7843015 92.3738603 63.7843015"></polygon>
            <path d="M112.895956,46.9487868 C107.91739,46.9487868 104.446103,49.0866176 104.446103,55.8023162 C104.446103,62.3680147 107.946728,64.1447426 113.379044,64.1447426 C115.370956,64.1447426 117.724632,63.8122059 119.565441,63.2104412 L118.811029,59.5061029 C117.091544,59.8988603 115.219853,60.1698529 114.103676,60.1698529 C111.477574,60.1698529 109.425993,59.6869853 109.455882,57.0971691 L120.138971,57.0971691 L120.138971,55.2901103 C120.138971,50.3218015 118.086397,46.9487868 112.895956,46.9487868 Z M112.533088,50.5019118 C114.163235,50.5019118 115.038971,51.886875 114.978309,53.8749265 L109.607096,53.8749265 C109.697757,51.7059926 110.813603,50.5019118 112.533088,50.5019118 Z" id="Shape" fill="#73C7AF"></path>
            <path d="M122.161765,55.4108824 C122.161765,50.2904779 125.602941,46.9186765 131.184926,46.9186765 C133.599265,46.9186765 135.138971,47.37 136.437132,48.0625368 L135.138971,51.7059926 C133.809926,51.1948897 133.086397,51.0140074 131.395588,51.0140074 C129.313235,51.0140074 127.321324,51.9472059 127.321324,55.4701103 C127.321324,58.6329044 128.075735,60.1080882 132.029779,60.1080882 C133.418382,60.1080882 134.171691,59.9272059 135.530515,59.6861029 L136.225368,63.5104412 C134.444118,63.9020956 133.599265,64.1139706 131.757353,64.1139706 C124.787868,64.1145221 122.161765,61.5534926 122.161765,55.4108824 Z" id="Path" fill="#73C7AF"></path>
            <path d="M139.272794,41.0767279 L144.313235,41.0767279 L144.313235,49.0867279 C145.398529,48.2126471 147.481985,46.9487868 149.684559,46.9487868 C154.846324,46.9487868 155.209191,49.8097059 155.209191,53.5444853 L155.209191,63.7829779 L150.198529,63.7829779 L150.198529,53.9653676 C150.198529,51.7063235 149.684559,51.3153309 147.994853,51.3153309 C146.486029,51.3153309 145.128309,51.8275368 144.313235,52.2191912 L144.313235,63.7829779 L139.272794,63.7829779 L139.272794,41.0767279 Z" id="Path" fill="#73C7AF"></path>
            <path d="M159.163235,47.3401103 L164.202574,47.3401103 L164.202574,48.9961765 C165.198529,48.2434191 167.371324,46.9186765 169.575,46.9186765 C174.734559,46.9186765 175.097426,49.7483824 175.097426,53.4826103 L175.097426,63.7826471 L170.086765,63.7826471 L170.086765,53.9059191 C170.086765,51.646875 169.575,51.2546691 167.884191,51.2546691 C166.376471,51.2546691 165.017647,51.7364338 164.202574,52.1286397 L164.202574,63.7826471 L159.163235,63.7826471 L159.163235,47.3401103 Z" id="Path" fill="#73C7AF"></path>
            <path d="M186.627574,46.9186765 C181.40625,46.9186765 177.995956,50.2605882 177.995956,55.711875 C177.995956,60.8621691 180.923162,64.1444118 186.355147,64.1444118 C191.425368,64.1444118 195.106985,61.1623897 195.106985,55.5602206 C195.106985,50.1997059 192.481985,46.9186765 186.627574,46.9186765 Z M186.536029,50.8934559 C189.312132,50.8934559 189.976103,52.9119485 189.976103,55.5602206 C189.976103,58.3625735 189.312132,60.1386397 186.595588,60.1386397 C183.908824,60.1386397 183.065074,58.4222426 183.065074,55.5913235 C183.065074,52.9112868 183.819485,50.8934559 186.536029,50.8934559 Z" id="Shape" fill="#73C7AF"></path>
            <polygon id="Path" fill="#73C7AF" points="198.1875 41.0767279 203.225735 41.0767279 203.225735 63.7824265 198.1875 63.7824265"></polygon>
            <path d="M214.905882,46.9186765 C209.685662,46.9186765 206.274265,50.2605882 206.274265,55.711875 C206.274265,60.8621691 209.201471,64.1444118 214.634559,64.1444118 C219.703676,64.1444118 223.385294,61.1623897 223.385294,55.5602206 C223.385294,50.1997059 220.760294,46.9186765 214.905882,46.9186765 Z M214.815441,50.8934559 C217.591544,50.8934559 218.255515,52.9119485 218.255515,55.5602206 C218.255515,58.3625735 217.591544,60.1386397 214.875,60.1386397 C212.189338,60.1386397 211.344485,58.4222426 211.344485,55.5913235 C211.344485,52.9112868 212.098897,50.8934559 214.815441,50.8934559 Z" id="Shape" fill="#73C7AF"></path>
            <path d="M229.997426,57.7902574 C229.694118,58.1514706 229.544118,58.5442279 229.544118,58.8445588 C229.544118,59.3567647 229.966544,59.7477574 230.841176,59.7477574 L233.950368,59.7477574 C238.476838,59.7477574 240.831618,61.1328309 240.831618,64.5960662 C240.831618,67.9701838 238.144853,70.7093382 232.561765,70.7093382 C227.703309,70.7093382 225.379412,69.2334926 225.379412,66.4932353 C225.379412,65.4700368 225.952941,63.9339706 227.221324,63.0904412 C226.345588,62.4892279 225.923162,61.6151471 225.923162,60.6516176 C225.923162,59.4158824 226.616912,58.06125 227.915074,57.0977206 C226.55625,56.3460662 225.620956,55.0505515 225.620956,52.8817279 C225.620956,49.6287132 228.367279,46.9493382 232.591544,46.9493382 C234.703676,46.9493382 236.152941,47.521875 236.75625,47.8220956 L242.037132,47.4305515 L242.037132,50.9545588 L239.533456,50.9545588 C239.594118,51.2858824 239.714338,52.3700735 239.714338,52.7318382 C239.714338,56.10375 236.394485,58.0320221 232.712868,58.0320221 C231.777574,58.0313603 230.841176,57.9705882 229.997426,57.7902574 Z M230.026103,63.7826471 C229.753676,63.7826471 229.482353,63.7826471 229.241912,63.7528676 C229.000368,64.1748529 228.880147,64.625625 228.880147,65.0477206 C228.880147,66.1324632 229.845221,67.0052206 232.410662,67.0052206 C235.126103,67.0052206 236.816912,66.3432353 236.816912,65.2590441 C236.816912,64.1151838 235.699632,63.7833088 234.371691,63.7833088 L230.026103,63.7833088 L230.026103,63.7826471 Z M232.742647,50.1708088 C234.340809,50.1708088 235.246324,51.3451103 235.246324,52.6710662 C235.246324,53.9659191 234.251471,55.0798897 232.681985,55.0793382 C230.931618,55.0793382 230.056985,54.14625 230.056985,52.8215074 C230.056985,51.255 230.931618,50.1708088 232.742647,50.1708088 Z" id="Shape" fill="#73C7AF"></path>
            <polygon id="Path" fill="#73C7AF" points="250.217647 63.7830882 248.406618 63.7830882 242.733088 47.3405515 248.135294 47.3405515 250.972059 57.0972794 251.665809 59.7778676 252.480882 57.0972794 255.769853 47.3405515 260.841176 47.3405515 252.783088 70.4085662 247.984191 70.4085662"></polygon>
        </g>
    </g>
</svg>